<?xml version="1.0" encoding="iso-8859-1"?>
<!-- Generator: Adobe Illustrator 21.0.0, SVG Export Plug-In . SVG Version: 6.00 Build 0)  -->
<svg xmlns="http://www.w3.org/2000/svg" xmlns:xlink="http://www.w3.org/1999/xlink" version="1.1" id="Capa_1" x="0px" y="0px" viewBox="0 0 512 512" style="enable-background:new 0 0 512 512;" xml:space="preserve" width="512" height="512">
<g>
	<g>
		<path style="fill:#00AB5E;" d="M236.693,361.795c-4.668,3.917-11.194,4.823-16.59,1.969    c-2.971-1.58-73.736-39.495-133.508-110.728S1.773,105.529,0.733,102.329C-3.013,90.71,11.238,77.752,22.031,83.458    c2.971,1.58,73.736,40.495,133.508,111.728c57.484,68.506,82.963,142.011,85.68,150.172c1.935,5.815,0.213,12.423-4.47,16.391    C236.738,361.757,236.715,361.776,236.693,361.795z"/>
	</g>
	<g>
		<path style="fill:#5BC980;" d="M248.573,361.795c-5.726,2.084-12.168,0.703-16.263-3.824    c-2.251-2.501-55.781-62.332-87.585-149.712S115.469,38.637,115.586,35.274c0.454-12.2,17.936-18.563,26.126-9.509    c2.251,2.501,55.781,64.332,87.585,151.712c30.586,84.035,29.389,161.822,29.151,170.419c-0.171,6.126-4.049,11.747-9.806,13.873    C248.628,361.775,248.601,361.785,248.573,361.795z"/>
	</g>
	<g>
		<path style="fill:#7FE881;" d="M256.073,361.795c-6.094,0-11.675-3.501-13.975-9.155C240.839,349.52,211,274.988,211,182    S240.839,11.602,242.099,8.481c4.6-11.309,23.203-11.309,27.803,0C271.161,11.602,301,89.012,301,182    c0,89.429-27.729,162.114-30.894,170.112c-2.256,5.698-7.822,9.653-13.96,9.683C256.132,361.795,256.103,361.795,256.073,361.795z    "/>
	</g>
	<path style="fill:#895D3C;" d="M431.814,198.469l31.82,31.82c64.488,64.488,64.488,168.858,0,233.345s-168.858,64.488-233.345,0   l-31.82-31.82c-23.335-23.335,9.759-94.611,74.246-159.099S408.479,175.134,431.814,198.469z"/>
	<path style="fill:#714C2F;" d="M431.814,198.469l31.82,31.82c64.488,64.488,64.488,168.858,0,233.345L272.715,272.715   C337.203,208.228,408.479,175.134,431.814,198.469z"/>
	<circle style="fill:#523522;" cx="407" cy="317" r="15"/>
	<path style="fill:#714C2F;" d="M392,377c0,4.2-1.8,7.8-4.2,10.8C384.8,390.2,381.2,392,377,392c-8.401,0-15-6.601-15-15   c0-4.2,1.8-7.8,4.2-10.8C369.2,363.8,372.8,362,377,362C385.401,362,392,368.599,392,377z"/>
	<circle style="fill:#523522;" cx="437" cy="377" r="15"/>
	<g>
		<path style="fill:#895D3C;" d="M313.531,431.814l-31.82,31.82c-64.488,64.488-168.858,64.488-233.345,0s-64.488-168.858,0-233.345    l31.82-31.82L313.531,431.814z"/>
		<path style="fill:#714C2F;" d="M313.531,431.814l-31.82,31.82c-64.488,64.488-168.858,64.488-233.345,0l148.492-148.492    L313.531,431.814z"/>
		<path style="fill:#E0F4FF;" d="M313.531,431.814c-23.334,23.334-94.611-9.759-159.099-74.246s-97.58-135.765-74.246-159.099    c23.335-23.335,94.611,9.759,159.099,74.246S336.866,408.479,313.531,431.814z"/>
		<path style="fill:#BBDCFF;" d="M313.531,431.814c-23.334,23.334-94.611-9.759-159.099-74.246l84.853-84.853    C303.772,337.203,336.866,408.479,313.531,431.814z"/>
		<path style="fill:#BBDCFF;" d="M292.318,368.175c-11.667,11.667-54.518-12.092-95.459-53.033s-64.7-83.792-53.033-95.459    c11.667-11.667,54.518,12.092,95.459,53.033S303.985,356.508,292.318,368.175z"/>
		<path style="fill:#9ABADB;" d="M292.318,368.175c-11.667,11.667-54.518-12.092-95.459-53.033l42.426-42.426    C280.226,313.657,303.985,356.508,292.318,368.175z"/>
	</g>
	<path style="fill:#523522;" d="M392,377c0,4.2-1.8,7.8-4.2,10.8L366.2,366.2C369.2,363.8,372.8,362,377,362   C385.401,362,392,368.599,392,377z"/>
</g>















</svg>
